# xmcd
#
# Track frame offsets:
#	150
#	28675
#	63250
#	97710
#	113917
#	144947
#	185585
#
# Disc length: 2976 seconds
#
# Revision: 2
# Processed by: cddbd v1.5.2PL0 Copyright (c) Steve Scherf et al.
# Submitted via: EZCDAudioConverter 8.0.2.1
#
DISCID=530b9e07
DTITLE=Various Artist - st. Vũ Thành An
DYEAR=1991
DGENRE=
TTITLE0=Kiều Nga, Anh Sơn - LK Bài không tên cuối cùng, Một lần gặp lại em
TTITLE1=Kiều Nga, Elvis Phương - LK Bài không tên số 4, 5
TTITLE2=Ngọc Huệ, Anh Sơn - LK Lời tình buồn, Đừng yêu tôi
TTITLE3=Soundtrack - Dấu tình sầu
TTITLE4=Kiều Nga, Elvis Phương - LK Bài không tên số 2, 3
TTITLE5=Kiều Nga, Anh Sơn - LK Bài không tên số 9, 6
TTITLE6=Kiều Nga, Elvis Phương - LK Bài không tên số 8, 7
EXTD=
EXTT0=
EXTT1=
EXTT2=
EXTT3=
EXTT4=
EXTT5=
EXTT6=
PLAYORDER=
